<mxfile host="Electron" modified="2024-05-30T23:59:24.115Z" agent="Mozilla/5.0 (Windows NT 10.0; Win64; x64) AppleWebKit/537.36 (KHTML, like Gecko) draw.io/23.1.5 Chrome/120.0.6099.109 Electron/28.1.0 Safari/537.36" etag="2Qimd5jJ50i9K2RwUWzD" version="23.1.5" type="device">
  <diagram name="Страница — 1" id="HAEFzcsdd3t3F0blb63r">
    <mxGraphModel dx="787" dy="828" grid="1" gridSize="10" guides="1" tooltips="1" connect="1" arrows="1" fold="1" page="1" pageScale="1" pageWidth="827" pageHeight="1169" math="0" shadow="0">
      <root>
        <mxCell id="0" />
        <mxCell id="1" parent="0" />
        <mxCell id="ibyx7go6UJ-eTymiOg-r-1" value="URL Server" style="ellipse;whiteSpace=wrap;html=1;" vertex="1" parent="1">
          <mxGeometry x="150" y="160" width="120" height="80" as="geometry" />
        </mxCell>
        <mxCell id="ibyx7go6UJ-eTymiOg-r-4" value="Crawler" style="ellipse;whiteSpace=wrap;html=1;" vertex="1" parent="1">
          <mxGeometry x="330" y="150" width="120" height="80" as="geometry" />
        </mxCell>
        <mxCell id="ibyx7go6UJ-eTymiOg-r-5" value="URL Resolver" style="ellipse;whiteSpace=wrap;html=1;" vertex="1" parent="1">
          <mxGeometry x="170" y="370" width="120" height="80" as="geometry" />
        </mxCell>
        <mxCell id="ibyx7go6UJ-eTymiOg-r-6" value="Store Server" style="ellipse;whiteSpace=wrap;html=1;" vertex="1" parent="1">
          <mxGeometry x="570" y="180" width="120" height="80" as="geometry" />
        </mxCell>
        <mxCell id="ibyx7go6UJ-eTymiOg-r-7" value="Indexer" style="ellipse;whiteSpace=wrap;html=1;" vertex="1" parent="1">
          <mxGeometry x="410" y="360" width="120" height="80" as="geometry" />
        </mxCell>
        <mxCell id="ibyx7go6UJ-eTymiOg-r-9" value="Anchors" style="shape=cylinder3;whiteSpace=wrap;html=1;boundedLbl=1;backgroundOutline=1;size=15;" vertex="1" parent="1">
          <mxGeometry x="280" y="250" width="100" height="110" as="geometry" />
        </mxCell>
        <mxCell id="ibyx7go6UJ-eTymiOg-r-10" value="Repository" style="shape=cylinder3;whiteSpace=wrap;html=1;boundedLbl=1;backgroundOutline=1;size=15;" vertex="1" parent="1">
          <mxGeometry x="580" y="300" width="100" height="110" as="geometry" />
        </mxCell>
        <mxCell id="ibyx7go6UJ-eTymiOg-r-11" value="Links" style="shape=cylinder3;whiteSpace=wrap;html=1;boundedLbl=1;backgroundOutline=1;size=15;" vertex="1" parent="1">
          <mxGeometry x="130" y="475" width="70" height="110" as="geometry" />
        </mxCell>
        <mxCell id="ibyx7go6UJ-eTymiOg-r-12" value="Doc Index" style="shape=cylinder3;whiteSpace=wrap;html=1;boundedLbl=1;backgroundOutline=1;size=15;" vertex="1" parent="1">
          <mxGeometry x="260" y="475" width="70" height="110" as="geometry" />
        </mxCell>
        <mxCell id="ibyx7go6UJ-eTymiOg-r-14" value="Pagerank" style="ellipse;whiteSpace=wrap;html=1;" vertex="1" parent="1">
          <mxGeometry x="170" y="620" width="120" height="80" as="geometry" />
        </mxCell>
        <mxCell id="ibyx7go6UJ-eTymiOg-r-3" value="" style="ellipse;whiteSpace=wrap;html=1;" vertex="1" parent="1">
          <mxGeometry x="360" y="145" width="120" height="80" as="geometry" />
        </mxCell>
        <mxCell id="ibyx7go6UJ-eTymiOg-r-2" value="Crawler" style="ellipse;whiteSpace=wrap;html=1;" vertex="1" parent="1">
          <mxGeometry x="390" y="140" width="120" height="80" as="geometry" />
        </mxCell>
        <mxCell id="ibyx7go6UJ-eTymiOg-r-19" value="" style="ellipse;whiteSpace=wrap;html=1;" vertex="1" parent="1">
          <mxGeometry x="450" y="600" width="120" height="80" as="geometry" />
        </mxCell>
        <mxCell id="ibyx7go6UJ-eTymiOg-r-18" value="" style="ellipse;whiteSpace=wrap;html=1;" vertex="1" parent="1">
          <mxGeometry x="420" y="600" width="120" height="80" as="geometry" />
        </mxCell>
        <mxCell id="ibyx7go6UJ-eTymiOg-r-17" value="Sorter" style="ellipse;whiteSpace=wrap;html=1;" vertex="1" parent="1">
          <mxGeometry x="390" y="600" width="120" height="80" as="geometry" />
        </mxCell>
        <mxCell id="ibyx7go6UJ-eTymiOg-r-20" value="Lexicon" style="shape=cylinder3;whiteSpace=wrap;html=1;boundedLbl=1;backgroundOutline=1;size=15;" vertex="1" parent="1">
          <mxGeometry x="690" y="430" width="80" height="110" as="geometry" />
        </mxCell>
        <mxCell id="ibyx7go6UJ-eTymiOg-r-21" value="Searcher" style="ellipse;whiteSpace=wrap;html=1;" vertex="1" parent="1">
          <mxGeometry x="650" y="600" width="120" height="80" as="geometry" />
        </mxCell>
        <mxCell id="ibyx7go6UJ-eTymiOg-r-22" value="" style="shape=cylinder3;whiteSpace=wrap;html=1;boundedLbl=1;backgroundOutline=1;size=15;" vertex="1" parent="1">
          <mxGeometry x="360" y="460" width="70" height="80" as="geometry" />
        </mxCell>
        <mxCell id="ibyx7go6UJ-eTymiOg-r-23" value="" style="shape=cylinder3;whiteSpace=wrap;html=1;boundedLbl=1;backgroundOutline=1;size=15;" vertex="1" parent="1">
          <mxGeometry x="430" y="460" width="70" height="80" as="geometry" />
        </mxCell>
        <mxCell id="ibyx7go6UJ-eTymiOg-r-24" value="" style="shape=cylinder3;whiteSpace=wrap;html=1;boundedLbl=1;backgroundOutline=1;size=15;" vertex="1" parent="1">
          <mxGeometry x="500" y="460" width="70" height="80" as="geometry" />
        </mxCell>
        <mxCell id="ibyx7go6UJ-eTymiOg-r-25" value="" style="shape=cylinder3;whiteSpace=wrap;html=1;boundedLbl=1;backgroundOutline=1;size=15;" vertex="1" parent="1">
          <mxGeometry x="570" y="460" width="70" height="80" as="geometry" />
        </mxCell>
        <mxCell id="ibyx7go6UJ-eTymiOg-r-26" value="Barrels" style="text;html=1;align=center;verticalAlign=middle;whiteSpace=wrap;rounded=0;" vertex="1" parent="1">
          <mxGeometry x="470" y="540" width="60" height="30" as="geometry" />
        </mxCell>
        <mxCell id="ibyx7go6UJ-eTymiOg-r-47" value="" style="endArrow=classic;startArrow=classic;html=1;rounded=0;entryX=0.5;entryY=1;entryDx=0;entryDy=0;entryPerimeter=0;exitX=0.375;exitY=0.025;exitDx=0;exitDy=0;exitPerimeter=0;" edge="1" parent="1" source="ibyx7go6UJ-eTymiOg-r-17" target="ibyx7go6UJ-eTymiOg-r-23">
          <mxGeometry width="50" height="50" relative="1" as="geometry">
            <mxPoint x="465" y="600" as="sourcePoint" />
            <mxPoint x="510" y="780" as="targetPoint" />
          </mxGeometry>
        </mxCell>
        <mxCell id="ibyx7go6UJ-eTymiOg-r-48" value="" style="endArrow=classic;html=1;rounded=0;exitX=0;exitY=0;exitDx=0;exitDy=0;entryX=1;entryY=1;entryDx=0;entryDy=-15;entryPerimeter=0;" edge="1" parent="1" source="ibyx7go6UJ-eTymiOg-r-7" target="ibyx7go6UJ-eTymiOg-r-9">
          <mxGeometry width="50" height="50" relative="1" as="geometry">
            <mxPoint x="490" y="330" as="sourcePoint" />
            <mxPoint x="540" y="280" as="targetPoint" />
          </mxGeometry>
        </mxCell>
        <mxCell id="ibyx7go6UJ-eTymiOg-r-49" value="" style="endArrow=classic;html=1;rounded=0;exitX=0.145;exitY=1;exitDx=0;exitDy=-4.35;exitPerimeter=0;entryX=0.8;entryY=0.1;entryDx=0;entryDy=0;entryPerimeter=0;" edge="1" parent="1" source="ibyx7go6UJ-eTymiOg-r-9" target="ibyx7go6UJ-eTymiOg-r-5">
          <mxGeometry width="50" height="50" relative="1" as="geometry">
            <mxPoint x="480" y="330" as="sourcePoint" />
            <mxPoint x="530" y="280" as="targetPoint" />
          </mxGeometry>
        </mxCell>
        <mxCell id="ibyx7go6UJ-eTymiOg-r-50" value="" style="endArrow=classic;html=1;rounded=0;exitX=0;exitY=1;exitDx=0;exitDy=0;entryX=0.5;entryY=0;entryDx=0;entryDy=0;entryPerimeter=0;" edge="1" parent="1" source="ibyx7go6UJ-eTymiOg-r-5" target="ibyx7go6UJ-eTymiOg-r-11">
          <mxGeometry width="50" height="50" relative="1" as="geometry">
            <mxPoint x="410" y="780" as="sourcePoint" />
            <mxPoint x="460" y="730" as="targetPoint" />
          </mxGeometry>
        </mxCell>
        <mxCell id="ibyx7go6UJ-eTymiOg-r-51" value="" style="endArrow=classic;html=1;rounded=0;exitX=1;exitY=1;exitDx=0;exitDy=0;entryX=0.5;entryY=0;entryDx=0;entryDy=0;entryPerimeter=0;" edge="1" parent="1" source="ibyx7go6UJ-eTymiOg-r-5" target="ibyx7go6UJ-eTymiOg-r-12">
          <mxGeometry width="50" height="50" relative="1" as="geometry">
            <mxPoint x="360" y="800" as="sourcePoint" />
            <mxPoint x="410" y="750" as="targetPoint" />
          </mxGeometry>
        </mxCell>
        <mxCell id="ibyx7go6UJ-eTymiOg-r-52" value="" style="endArrow=classic;html=1;rounded=0;exitX=1;exitY=0.5;exitDx=0;exitDy=0;entryX=0.5;entryY=0;entryDx=0;entryDy=0;entryPerimeter=0;" edge="1" parent="1" source="ibyx7go6UJ-eTymiOg-r-5" target="ibyx7go6UJ-eTymiOg-r-22">
          <mxGeometry width="50" height="50" relative="1" as="geometry">
            <mxPoint x="440" y="860" as="sourcePoint" />
            <mxPoint x="490" y="810" as="targetPoint" />
          </mxGeometry>
        </mxCell>
        <mxCell id="ibyx7go6UJ-eTymiOg-r-53" value="" style="endArrow=classic;html=1;rounded=0;exitX=0.5;exitY=1;exitDx=0;exitDy=0;exitPerimeter=0;entryX=0.3;entryY=0.025;entryDx=0;entryDy=0;entryPerimeter=0;" edge="1" parent="1" source="ibyx7go6UJ-eTymiOg-r-11" target="ibyx7go6UJ-eTymiOg-r-14">
          <mxGeometry width="50" height="50" relative="1" as="geometry">
            <mxPoint x="380" y="810" as="sourcePoint" />
            <mxPoint x="430" y="760" as="targetPoint" />
          </mxGeometry>
        </mxCell>
        <mxCell id="ibyx7go6UJ-eTymiOg-r-54" value="" style="endArrow=classic;html=1;rounded=0;exitX=0.855;exitY=1;exitDx=0;exitDy=-4.35;exitPerimeter=0;entryX=0;entryY=1;entryDx=0;entryDy=0;edgeStyle=orthogonalEdgeStyle;curved=1;" edge="1" parent="1" source="ibyx7go6UJ-eTymiOg-r-12" target="ibyx7go6UJ-eTymiOg-r-21">
          <mxGeometry width="50" height="50" relative="1" as="geometry">
            <mxPoint x="380" y="800" as="sourcePoint" />
            <mxPoint x="430" y="750" as="targetPoint" />
            <Array as="points">
              <mxPoint x="320" y="710" />
              <mxPoint x="668" y="710" />
            </Array>
          </mxGeometry>
        </mxCell>
        <mxCell id="ibyx7go6UJ-eTymiOg-r-55" value="" style="endArrow=classic;html=1;rounded=0;exitX=1;exitY=1;exitDx=0;exitDy=0;entryX=0.5;entryY=1;entryDx=0;entryDy=0;edgeStyle=orthogonalEdgeStyle;curved=1;" edge="1" parent="1" source="ibyx7go6UJ-eTymiOg-r-14" target="ibyx7go6UJ-eTymiOg-r-21">
          <mxGeometry width="50" height="50" relative="1" as="geometry">
            <mxPoint x="310" y="810" as="sourcePoint" />
            <mxPoint x="360" y="760" as="targetPoint" />
            <Array as="points">
              <mxPoint x="272" y="760" />
              <mxPoint x="710" y="760" />
            </Array>
          </mxGeometry>
        </mxCell>
        <mxCell id="ibyx7go6UJ-eTymiOg-r-56" value="" style="endArrow=classic;html=1;rounded=0;exitX=0.5;exitY=1;exitDx=0;exitDy=0;exitPerimeter=0;entryX=0.5;entryY=0;entryDx=0;entryDy=0;" edge="1" parent="1" source="ibyx7go6UJ-eTymiOg-r-20" target="ibyx7go6UJ-eTymiOg-r-21">
          <mxGeometry width="50" height="50" relative="1" as="geometry">
            <mxPoint x="730" y="830" as="sourcePoint" />
            <mxPoint x="780" y="780" as="targetPoint" />
          </mxGeometry>
        </mxCell>
        <mxCell id="ibyx7go6UJ-eTymiOg-r-57" value="" style="endArrow=classic;html=1;rounded=0;exitX=0.855;exitY=1;exitDx=0;exitDy=-4.35;exitPerimeter=0;entryX=0.225;entryY=0.075;entryDx=0;entryDy=0;entryPerimeter=0;" edge="1" parent="1" source="ibyx7go6UJ-eTymiOg-r-25" target="ibyx7go6UJ-eTymiOg-r-21">
          <mxGeometry width="50" height="50" relative="1" as="geometry">
            <mxPoint x="760" y="810" as="sourcePoint" />
            <mxPoint x="810" y="760" as="targetPoint" />
          </mxGeometry>
        </mxCell>
        <mxCell id="ibyx7go6UJ-eTymiOg-r-58" value="" style="endArrow=classic;html=1;rounded=0;exitX=1;exitY=1;exitDx=0;exitDy=0;entryX=0;entryY=0;entryDx=0;entryDy=15;entryPerimeter=0;" edge="1" parent="1" source="ibyx7go6UJ-eTymiOg-r-7" target="ibyx7go6UJ-eTymiOg-r-20">
          <mxGeometry width="50" height="50" relative="1" as="geometry">
            <mxPoint x="550" y="850" as="sourcePoint" />
            <mxPoint x="600" y="800" as="targetPoint" />
          </mxGeometry>
        </mxCell>
        <mxCell id="ibyx7go6UJ-eTymiOg-r-59" value="" style="endArrow=classic;html=1;rounded=0;exitX=0;exitY=0.5;exitDx=0;exitDy=0;exitPerimeter=0;entryX=0.917;entryY=0.25;entryDx=0;entryDy=0;entryPerimeter=0;" edge="1" parent="1" source="ibyx7go6UJ-eTymiOg-r-10" target="ibyx7go6UJ-eTymiOg-r-7">
          <mxGeometry width="50" height="50" relative="1" as="geometry">
            <mxPoint x="750" y="870" as="sourcePoint" />
            <mxPoint x="800" y="820" as="targetPoint" />
          </mxGeometry>
        </mxCell>
        <mxCell id="ibyx7go6UJ-eTymiOg-r-60" value="" style="endArrow=classic;html=1;rounded=0;exitX=0.5;exitY=1;exitDx=0;exitDy=0;entryX=0.5;entryY=0;entryDx=0;entryDy=0;entryPerimeter=0;" edge="1" parent="1" source="ibyx7go6UJ-eTymiOg-r-6" target="ibyx7go6UJ-eTymiOg-r-10">
          <mxGeometry width="50" height="50" relative="1" as="geometry">
            <mxPoint x="490" y="300" as="sourcePoint" />
            <mxPoint x="540" y="250" as="targetPoint" />
          </mxGeometry>
        </mxCell>
        <mxCell id="ibyx7go6UJ-eTymiOg-r-61" value="" style="endArrow=classic;html=1;rounded=0;exitX=1;exitY=0.5;exitDx=0;exitDy=0;entryX=0;entryY=0;entryDx=0;entryDy=0;" edge="1" parent="1" source="ibyx7go6UJ-eTymiOg-r-2" target="ibyx7go6UJ-eTymiOg-r-6">
          <mxGeometry width="50" height="50" relative="1" as="geometry">
            <mxPoint x="490" y="300" as="sourcePoint" />
            <mxPoint x="540" y="250" as="targetPoint" />
          </mxGeometry>
        </mxCell>
        <mxCell id="ibyx7go6UJ-eTymiOg-r-62" value="" style="endArrow=classic;html=1;rounded=0;exitX=1;exitY=0.5;exitDx=0;exitDy=0;entryX=0;entryY=0.5;entryDx=0;entryDy=0;" edge="1" parent="1" source="ibyx7go6UJ-eTymiOg-r-1" target="ibyx7go6UJ-eTymiOg-r-4">
          <mxGeometry width="50" height="50" relative="1" as="geometry">
            <mxPoint x="470" y="330" as="sourcePoint" />
            <mxPoint x="520" y="280" as="targetPoint" />
          </mxGeometry>
        </mxCell>
        <mxCell id="ibyx7go6UJ-eTymiOg-r-65" value="" style="endArrow=classic;html=1;rounded=0;entryX=0.855;entryY=0;entryDx=0;entryDy=4.35;entryPerimeter=0;exitX=0.067;exitY=0.775;exitDx=0;exitDy=0;exitPerimeter=0;" edge="1" parent="1" source="ibyx7go6UJ-eTymiOg-r-7" target="ibyx7go6UJ-eTymiOg-r-12">
          <mxGeometry width="50" height="50" relative="1" as="geometry">
            <mxPoint x="230" y="830" as="sourcePoint" />
            <mxPoint x="280" y="780" as="targetPoint" />
          </mxGeometry>
        </mxCell>
        <mxCell id="ibyx7go6UJ-eTymiOg-r-68" value="" style="curved=1;endArrow=classic;html=1;rounded=0;entryX=0;entryY=1;entryDx=0;entryDy=0;exitX=0;exitY=0.5;exitDx=0;exitDy=0;exitPerimeter=0;" edge="1" parent="1" source="ibyx7go6UJ-eTymiOg-r-12" target="ibyx7go6UJ-eTymiOg-r-1">
          <mxGeometry width="50" height="50" relative="1" as="geometry">
            <mxPoint x="250" y="530" as="sourcePoint" />
            <mxPoint x="70" y="320" as="targetPoint" />
            <Array as="points">
              <mxPoint x="190" y="480" />
              <mxPoint x="130" y="370" />
            </Array>
          </mxGeometry>
        </mxCell>
        <mxCell id="ibyx7go6UJ-eTymiOg-r-69" value="" style="endArrow=classic;html=1;rounded=0;exitX=0.5;exitY=1;exitDx=0;exitDy=0;entryX=0.743;entryY=0;entryDx=0;entryDy=0;entryPerimeter=0;" edge="1" parent="1" source="ibyx7go6UJ-eTymiOg-r-7" target="ibyx7go6UJ-eTymiOg-r-23">
          <mxGeometry width="50" height="50" relative="1" as="geometry">
            <mxPoint x="450" y="860" as="sourcePoint" />
            <mxPoint x="500" y="810" as="targetPoint" />
          </mxGeometry>
        </mxCell>
      </root>
    </mxGraphModel>
  </diagram>
</mxfile>
